<svg viewBox="0 0 32 32" fill="none" xmlns="http://www.w3.org/2000/svg">
  <circle cx="16" cy="16" r="16" fill="#1FC7D4"/>
  <path fill="#FFB237" d="M22.386 10.477c-1.59-1.617-3.851-2.477-6.386-2.477s-4.796.86-6.386 2.477C8.025 12.086 7.2 14.296 7.2 16.8c0 2.503.825 4.714 2.414 6.323C11.204 24.74 13.465 25.6 16 25.6s4.796-.86 6.386-2.477C23.975 21.514 24.8 19.303 24.8 16.8c0-2.504-.825-4.714-2.414-6.323z"/>
  <path fill="#FFB237" fillRule="evenodd" d="M11.569 6c-1.48 0-2.475 1.35-2.194 2.812l.562 3.375C7.721 13.144 6 14.887 6 16.97v1.293c0 1.744 1.136 3.207 2.728 4.163C10.371 23.437 12.525 24 14.972 24s4.601-.563 6.244-1.575C22.864 21.469 24 20.006 24 18.262V16.97c0-2.081-1.721-3.77-3.937-4.725l.562-3.432C20.85 7.35 19.798 6 18.319 6c-1.305 0-2.194 1.069-2.194 2.362V11.39a9 9 0 0 0-1.153-.057h-1.283l.186-2.97C13.875 7.07 12.868 6 11.569 6zm.337 12.375c.473 0 .844-.647.844-1.406 0-.76-.371-1.407-.844-1.407s-.844.647-.844 1.407.371 1.406.844 1.406zm6.187 0c.473 0 .844-.647.844-1.406 0-.76-.371-1.407-.844-1.407-.472 0-.843.647-.843 1.407s.37 1.406.843 1.406" clipRule="evenodd"/>
</svg>
